<?xml version="1.0" encoding="UTF-8" standalone="no"?>
<svg
    xmlns="http://www.w3.org/2000/svg"
    viewBox="0 0 16 16"
    style="display:inline;enable-background:new"
    version="1.0"
    height="16"
    width="16">
    <title>Netsleuth Symbolic Icon</title>
    <path d="M4.25 4C4.112 4 4 4.112 4 4.25V4.893C4 5.031 4.112 5.143 4.25 5.143H6.75C6.888 5.143 7 5.031 7 4.893V4.25C7 4.112 6.888 4 6.75 4H4.25ZM4 6.536C4 6.398 4.112 6.286 4.25 6.286H8.25C8.388 6.286 8.5 6.398 8.5 6.536V7.179C8.5 7.317 8.388 7.429 8.25 7.429H4.25C4.112 7.429 4 7.317 4 7.179V6.536ZM9.251 8.571C9.389 8.571 9.501 8.683 9.501 8.821V9.464C9.501 9.602 9.389 9.714 9.251 9.714H4.25C4.112 9.714 4 9.602 4 9.464V8.821C4 8.683 4.112 8.571 4.25 8.571H9.251ZM7 11.107C7 10.969 6.888 10.857 6.75 10.857H4.25C4.112 10.857 4 10.969 4 11.107V11.75C4 11.888 4.112 12 4.25 12H6.75C6.888 12 7 11.888 7 11.75V11.107ZM10.86 6.536C10.86 6.398 10.972 6.286 11.11 6.286H11.753C11.891 6.286 12.003 6.398 12.003 6.536V9.464C12.003 9.602 11.891 9.714 11.753 9.714H11.11C10.972 9.714 10.86 9.602 10.86 9.464V6.536Z" fill="#bebebe"/>
    <path d="M1 3.07083C1 1.94894 1.85922 1 2.91406 1H13.0859C14.1408 1 15 1.94893 15 3.07083V12.9292C15 14.0511 14.1408 15 13.0859 15H2.91406C1.85922 15 1 14.0511 1 12.9292V3.07083ZM13.25 3.07083C13.25 2.94217 13.1934 2.86667 13.0859 2.86667H2.91406C2.80661 2.86667 2.75 2.94217 2.75 3.07083V12.9292C2.75 13.0578 2.8066 13.1333 2.91406 13.1333H13.0859C13.1934 13.1333 13.25 13.0578 13.25 12.9292V3.07083Z" fill="#bebebe" fill-rule="evenodd" clip-rule="evenodd"/>
</svg>
